<svg aria-hidden="true" style="position: absolute; width: 0; height: 0; overflow: hidden;" version="1.1" xmlns="http://www.w3.org/2000/svg" xmlns:xlink="http://www.w3.org/1999/xlink">
<defs>
<symbol id="icon-likes" viewBox="0 0 20 20">
<path d="M10 3.22l-0.61-0.6c-0.983-0.931-2.314-1.504-3.779-1.504-3.038 0-5.5 2.462-5.5 5.5 0 1.462 0.571 2.791 1.501 3.776l-0.002-0.003 8.39 8.39 8.39-8.4c0.928-0.983 1.499-2.312 1.499-3.774 0-3.038-2.462-5.5-5.5-5.5-1.465 0-2.796 0.573-3.782 1.506l0.003-0.002-0.61 0.61z"></path>
</symbol>
<symbol id="icon-downloads" viewBox="0 0 20 20">
<path d="M0 2c0-1.1 0.9-2 2-2h14l4 4v14c0 1.105-0.895 2-2 2v0h-16c-1.105 0-2-0.895-2-2v0-16zM5 2v6h10v-6h-10zM11 3h3v4h-3v-4z"></path>
</symbol>
<symbol id="icon-comments" viewBox="0 0 20 20">
<path d="M0 3h20v2h-20v-2zM0 7h20v2h-20v-2zM0 11h20v2h-20v-2zM0 15h20v2h-20v-2z"></path>
</symbol>
<symbol id="icon-views" viewBox="0 0 20 20">
<path d="M0.2 10c1.86-3.592 5.548-6.004 9.8-6.004s7.94 2.412 9.771 5.943l0.029 0.061c-1.86 3.592-5.548 6.004-9.8 6.004s-7.94-2.412-9.771-5.943l-0.029-0.061zM10 14c2.209 0 4-1.791 4-4s-1.791-4-4-4v0c-2.209 0-4 1.791-4 4s1.791 4 4 4v0zM10 12c-1.105 0-2-0.895-2-2s0.895-2 2-2v0c1.105 0 2 0.895 2 2s-0.895 2-2 2v0z"></path>
</symbol>

</defs>
</svg>
